<?xml version="1.0" encoding="UTF-8" standalone="no"?>
<!-- Created with Inkscape (http://www.inkscape.org/) -->

<svg
   xmlns:dc="http://purl.org/dc/elements/1.1/"
   xmlns:cc="http://creativecommons.org/ns#"
   xmlns:rdf="http://www.w3.org/1999/02/22-rdf-syntax-ns#"
   xmlns:svg="http://www.w3.org/2000/svg"
   xmlns="http://www.w3.org/2000/svg"
   xmlns:sodipodi="http://sodipodi.sourceforge.net/DTD/sodipodi-0.dtd"
   xmlns:inkscape="http://www.inkscape.org/namespaces/inkscape"
   width="96.70649mm"
   height="50.743156mm"
   viewBox="0 0 96.70649 50.743156"
   version="1.1"
   id="svg8"
   inkscape:version="0.92.1 r15371"
   sodipodi:docname="pirl.svg">
  <defs
     id="defs2" />
  <sodipodi:namedview
     id="base"
     pagecolor="#ffffff"
     bordercolor="#666666"
     borderopacity="1.0"
     inkscape:pageopacity="0.0"
     inkscape:pageshadow="2"
     inkscape:zoom="1.979899"
     inkscape:cx="295.97653"
     inkscape:cy="-176.89924"
     inkscape:document-units="mm"
     inkscape:current-layer="layer1"
     showgrid="false"
     fit-margin-top="0"
     fit-margin-left="0"
     fit-margin-right="0"
     fit-margin-bottom="0"
     inkscape:window-width="3840"
     inkscape:window-height="2093"
     inkscape:window-x="-9"
     inkscape:window-y="1647"
     inkscape:window-maximized="1" />
  <metadata
     id="metadata5">
    <rdf:RDF>
      <cc:Work
         rdf:about="">
        <dc:format>image/svg+xml</dc:format>
        <dc:type
           rdf:resource="http://purl.org/dc/dcmitype/StillImage" />
        <dc:title></dc:title>
      </cc:Work>
    </rdf:RDF>
  </metadata>
  <g
     inkscape:groupmode="layer"
     id="layer2"
     inkscape:label="Layer 2"
     transform="translate(-5.0377577,-2.5877431)" />
  <g
     inkscape:label="Layer 1"
     inkscape:groupmode="layer"
     id="layer1"
     transform="translate(-5.0377577,-2.5877431)">

    <path
       style="fill:#a4b664;fill-opacity:1;stroke-width:0.27147916"
       d="m 24.64932,7.0351157 c -0.40006,0 -0.80023,0.0957 -1.16376,0.28732 -0.14541,0.0766 -0.28461,0.16866 -0.41599,0.27595 -0.0657,0.0537 -0.12938,0.11078 -0.19069,0.17209 L 11.38604,19.263306 c -0.12261,0.12262 -0.22998,0.25428 -0.32194,0.39326 0,0 0,5.3e-4 0,5.3e-4 -0.64347,0.97285 -0.53627,2.28939 0.32194,3.14761 l 11.359,11.35899 c 0.98095,0.98094 2.56044,0.98094 3.54139,0 0.98094,-0.98095 0.98094,-2.56044 0,-3.54139 l -9.58857,-9.58856 7.95146,-7.95145 16.00264,16.00315 c 0.98094,0.98095 2.56044,0.98095 3.54138,0 0.98095,-0.98094 0.98095,-2.56043 0,-3.54138 L 26.42027,7.7704757 c 0,0 -5.3e-4,0 -5.3e-4,0 -0.0613,-0.0613 -0.12446,-0.11844 -0.19016,-0.17209 -0.13138,-0.10729 -0.2711,-0.19931 -0.41651,-0.27595 -0.36353,-0.19159 -0.76369,-0.28732 -1.16375,-0.28732 z m 0.80201,12.0271703 c -0.64009,0 -1.28047,0.24489 -1.77095,0.73536 -0.98094,0.98095 -0.98094,2.56044 0,3.54139 l 9.58857,9.58856 -7.95146,7.95145 -16.0026401,-16.00316 c -0.98094,-0.98094 -2.56044,-0.98094 -3.5413797,0 -0.98095,0.98095 -0.98095,2.56044 0,3.54139 L 23.54706,46.190866 c 0.55178,0.55178 1.29274,0.79297 2.01021,0.72399 0.55804,-0.0536 1.10149,-0.29482 1.53066,-0.72399 9e-5,-9e-5 4.2e-4,9e-5 5e-4,0 l 11.49233,-11.49284 c 0.0613,-0.0613 0.11895,-0.12499 0.17259,-0.19068 0.37552,-0.45985 0.56328,-1.01967 0.56328,-1.57975 0,-0.08 -0.004,-0.16006 -0.0119,-0.23978 -0.0536,-0.55804 -0.29482,-1.10201 -0.72398,-1.53117 l -11.35899,-11.359 c -0.49047,-0.49047 -1.13034,-0.73536 -1.77044,-0.73536 z"
       id="rect4498-73-2"
       inkscape:connector-curvature="0" />
  </g>
</svg>
