<?xml version="1.0" encoding="utf-8"?>
<!-- Generator: Adobe Illustrator 13.0.2, SVG Export Plug-In . SVG Version: 6.00 Build 14948)  -->
<!DOCTYPE svg PUBLIC "-//W3C//DTD SVG 1.1//EN" "http://www.w3.org/Graphics/SVG/1.1/DTD/svg11.dtd">
<svg version="1.1"
	 id="svg8" inkscape:version="0.92.1 r15371" sodipodi:docname="pirl.svg" xmlns:dc="http://purl.org/dc/elements/1.1/" xmlns:cc="http://creativecommons.org/ns#" xmlns:rdf="http://www.w3.org/1999/02/22-rdf-syntax-ns#" xmlns:svg="http://www.w3.org/2000/svg" xmlns:sodipodi="http://sodipodi.sourceforge.net/DTD/sodipodi-0.dtd" xmlns:inkscape="http://www.inkscape.org/namespaces/inkscape"
	 xmlns="http://www.w3.org/2000/svg" xmlns:xlink="http://www.w3.org/1999/xlink" x="0px" y="0px" width="274.1px" height="143.8px"
	 viewBox="0 0 274.1 143.8" style="enable-background:new 0 0 274.1 143.8;" xml:space="preserve">
<style type="text/css">
<![CDATA[
	.st0{fill:#A2D729;}
]]>
</style>
<sodipodi:namedview  id="base" inkscape:window-y="1647" inkscape:window-x="-9" inkscape:window-height="2093" inkscape:window-width="3840" fit-margin-bottom="0" fit-margin-right="0" inkscape:current-layer="layer1" inkscape:document-units="mm" inkscape:pageshadow="2" inkscape:pageopacity="0.0" inkscape:cy="-176.89924" inkscape:cx="295.97653" inkscape:zoom="1.979899" fit-margin-left="0" borderopacity="1.0" fit-margin-top="0" showgrid="false" bordercolor="#666666" pagecolor="#ffffff" inkscape:window-maximized="1">
	</sodipodi:namedview>
<g id="layer2" transform="translate(-5.0377577,-2.5877431)" inkscape:groupmode="layer" inkscape:label="Layer 2">
</g>
<path class="st0" d="M112.6,64.3L62,13.6c-2.3-2.3-6.1-2.3-8.4,0L19.7,47.4c-2.3,2.3-2.3,6.1,0,8.4l33.8,33.8c2.3,2.3,6.1,2.3,8.4,0
	s2.3-6.1,0-8.4L32.4,51.6l25.3-25.3l46.4,46.4c2.3,2.3,6.1,2.3,8.4,0C115,70.4,115,66.6,112.6,64.3z"/>
<path class="st0" d="M2.8,72.7l50.7,50.7c2.3,2.3,6.1,2.3,8.4,0l33.8-33.8c2.3-2.3,2.3-6.1,0-8.4L62,47.4c-2.3-2.3-6.1-2.3-8.4,0
	c-2.3,2.3-2.3,6.1,0,8.4l29.6,29.6l-25.3,25.3L11.3,64.3c-2.3-2.3-6.1-2.3-8.4,0C0.5,66.6,0.5,70.4,2.8,72.7z"/>
</svg>
