<?xml version="1.0" standalone="no"?>
<!DOCTYPE svg PUBLIC "-//W3C//DTD SVG 20010904//EN"
 "http://www.w3.org/TR/2001/REC-SVG-20010904/DTD/svg10.dtd">
<svg version="1.0" xmlns="http://www.w3.org/2000/svg"
 width="507.000000pt" height="495.000000pt" viewBox="0 0 507.000000 495.000000"
 preserveAspectRatio="xMidYMid meet">
<metadata>
Created by potrace 1.10, written by Peter Selinger 2001-2011
</metadata>
<g transform="translate(0.000000,495.000000) scale(0.100000,-0.100000)"
fill="#7cd92f" stroke="none">
<path d="M2340 4685 c-14 -8 -35 -14 -46 -15 -12 0 -27 -7 -34 -15 -7 -8 -17
-15 -22 -15 -39 0 -342 -275 -556 -505 -46 -50 -153 -161 -238 -247 -85 -86
-191 -201 -236 -255 -45 -54 -87 -102 -93 -108 -18 -16 -75 -105 -75 -118 0
-7 -7 -21 -15 -31 -8 -11 -15 -33 -15 -48 0 -16 -7 -42 -15 -59 -11 -20 -16
-62 -17 -139 0 -97 2 -117 23 -160 13 -28 27 -50 31 -50 5 0 8 -8 8 -18 0 -11
10 -27 21 -38 12 -10 33 -37 47 -59 14 -22 51 -67 82 -100 31 -33 82 -87 112
-120 31 -33 60 -57 63 -53 4 4 -4 31 -18 60 -23 48 -47 82 -168 230 -16 21
-37 54 -45 73 -8 19 -19 35 -24 35 -30 0 -66 159 -57 249 8 78 33 171 52 191
8 9 20 32 27 51 13 38 211 275 301 359 155 147 381 379 402 415 25 41 67 62
178 88 26 6 47 15 47 19 0 4 -4 8 -10 8 -5 0 -10 11 -10 25 0 16 19 43 63 84
34 34 67 61 73 61 6 0 19 9 30 21 27 30 131 85 186 98 33 8 66 8 110 1 82 -13
175 -35 213 -50 35 -13 131 -76 141 -91 3 -6 40 -38 83 -71 71 -56 322 -289
472 -438 36 -36 123 -119 194 -185 151 -140 600 -580 659 -645 23 -24 73 -78
112 -120 215 -227 247 -266 294 -359 31 -62 17 -141 -37 -209 -41 -50 -84 -75
-117 -66 -13 3 -27 1 -31 -6 -10 -16 -91 -2 -145 25 -25 13 -72 49 -105 80
-135 127 -355 348 -355 356 0 5 -5 9 -12 9 -11 0 -156 138 -256 244 -20 21
-158 158 -305 305 -147 146 -361 360 -475 474 -219 220 -260 255 -332 276 -43
13 -45 12 -65 -12 -11 -13 -40 -40 -65 -58 -25 -19 -152 -140 -283 -269 -130
-129 -244 -242 -253 -250 -42 -41 -94 -101 -94 -110 0 -6 -4 -10 -9 -10 -5 0
-35 -23 -65 -52 -49 -46 -56 -57 -56 -91 l0 -38 29 20 c31 23 41 32 323 301
100 96 237 227 303 290 66 63 144 140 172 171 l53 55 533 -530 c463 -461 977
-964 1072 -1050 17 -15 62 -58 100 -95 39 -37 92 -82 118 -99 44 -30 54 -32
133 -32 88 0 99 4 192 63 52 34 122 138 122 183 0 16 5 35 11 41 8 8 6 23 -4
54 -18 51 -42 99 -54 108 -15 10 -73 89 -73 98 0 5 -8 15 -17 24 -10 8 -58 60
-108 114 -225 248 -622 649 -955 965 -102 96 -239 228 -306 293 -137 133 -176
169 -256 237 -32 27 -74 64 -95 83 -72 67 -137 107 -175 107 -12 0 -32 7 -42
15 -11 8 -39 15 -62 15 -23 0 -58 7 -77 15 -47 19 -173 19 -207 0z"/>
<path d="M2560 3335 c-14 -7 -32 -16 -40 -20 -57 -23 -148 -110 -180 -173 -12
-23 -26 -45 -31 -48 -16 -9 -11 -120 6 -134 8 -7 15 -19 15 -27 0 -9 14 -31
30 -50 17 -18 30 -40 30 -48 0 -8 6 -18 13 -22 14 -9 69 -73 107 -124 30 -41
32 -43 489 -509 211 -214 371 -370 379 -368 14 3 40 37 59 78 4 8 13 21 20 28
7 7 13 19 13 27 0 7 7 15 15 19 8 3 15 13 15 23 0 10 7 27 15 37 8 11 15 27
15 37 0 9 6 22 14 28 36 30 35 386 -1 422 -6 6 -9 26 -6 45 4 22 2 34 -5 34
-7 0 -19 14 -28 31 -16 31 -555 579 -569 579 -7 0 -78 53 -103 77 -7 7 -19 13
-26 13 -8 0 -19 7 -26 15 -7 8 -22 15 -34 15 -11 0 -30 7 -40 15 -25 19 -113
19 -146 0z m161 -98 c51 -25 229 -147 229 -158 0 -3 57 -64 126 -135 313 -320
373 -393 409 -495 20 -57 29 -183 17 -254 -11 -62 -70 -203 -94 -222 -7 -6
-26 -13 -41 -15 -23 -4 -33 1 -61 33 -18 22 -37 39 -42 39 -11 0 -293 290
-307 315 -4 8 -13 15 -19 15 -19 0 -395 393 -428 448 -9 15 -25 34 -35 42 -38
32 -95 135 -95 174 0 45 47 121 104 170 58 49 59 50 181 65 6 0 31 -9 56 -22z"/>
<path d="M1577 3193 c-8 -21 -23 -45 -59 -94 -16 -20 -28 -44 -28 -52 0 -8 -7
-20 -15 -27 -8 -7 -15 -21 -15 -32 0 -10 -7 -21 -15 -24 -9 -4 -15 -19 -15
-41 0 -19 -7 -41 -15 -49 -22 -23 -22 -296 0 -314 11 -9 14 -22 10 -41 -5 -20
1 -41 21 -76 30 -52 620 -652 691 -703 23 -17 48 -36 55 -43 54 -50 76 -57
168 -57 69 0 102 5 133 19 66 30 131 93 167 164 31 60 32 68 29 155 -2 51 -8
96 -14 100 -12 8 -31 39 -45 69 -5 13 -72 87 -149 165 -76 79 -183 190 -237
247 -85 90 -239 249 -549 567 -76 78 -109 96 -118 67z m125 -195 c36 -35 71
-73 77 -85 6 -13 23 -26 36 -29 14 -3 25 -10 25 -15 0 -5 51 -60 113 -122 539
-544 624 -638 656 -730 16 -47 6 -127 -18 -159 -10 -13 -26 -38 -35 -55 -23
-45 -84 -74 -171 -79 -102 -6 -145 20 -316 194 -67 67 -125 122 -129 122 -5 0
-37 34 -71 75 -35 41 -69 75 -77 75 -7 0 -16 8 -19 18 -4 9 -35 45 -70 79 -35
34 -63 67 -63 72 0 6 -8 15 -19 20 -22 12 -77 87 -108 147 -48 94 -56 278 -16
374 3 8 5 22 4 31 -1 9 5 22 14 29 8 7 15 19 15 27 0 21 61 73 85 73 12 0 49
-27 87 -62z"/>
<path d="M515 2698 c-107 -37 -190 -102 -233 -186 -32 -62 -32 -194 1 -239 37
-51 149 -183 202 -238 28 -29 118 -124 200 -211 395 -417 852 -873 1100 -1098
17 -15 55 -51 85 -80 30 -28 75 -67 100 -86 25 -19 63 -51 85 -72 22 -21 65
-55 95 -75 30 -21 59 -44 63 -51 4 -6 16 -12 26 -12 10 0 24 -7 31 -15 7 -8
24 -15 39 -15 14 0 35 -7 45 -15 29 -22 323 -22 352 0 10 8 29 15 42 15 12 0
25 7 28 15 4 8 17 15 30 15 12 0 27 6 31 13 4 8 24 24 43 38 47 32 211 191
598 579 303 304 442 459 442 493 0 8 7 20 15 27 8 7 15 20 15 30 0 10 7 20 15
24 9 3 15 18 15 36 0 16 4 30 10 30 5 0 12 17 15 38 4 20 12 53 19 72 19 53
20 219 1 254 -8 15 -15 36 -15 46 0 10 -7 23 -15 30 -8 7 -15 21 -15 32 0 10
-6 21 -13 24 -7 2 -24 22 -37 44 -14 22 -28 40 -32 40 -5 0 -8 5 -8 11 0 6
-24 37 -54 68 -30 31 -67 72 -82 91 -50 63 -183 190 -189 180 -3 -5 4 -19 16
-31 12 -12 33 -43 47 -68 28 -53 95 -144 134 -181 15 -14 41 -45 57 -70 122
-177 120 -174 132 -251 14 -92 6 -232 -16 -266 -9 -13 -13 -32 -10 -43 3 -10
0 -22 -7 -27 -8 -4 -22 -28 -33 -53 -23 -56 -76 -140 -87 -140 -4 0 -8 -8 -8
-18 0 -9 -73 -87 -162 -172 -244 -234 -338 -332 -344 -357 -4 -13 -12 -23 -20
-23 -8 0 -14 -7 -14 -15 0 -8 -15 -21 -34 -29 -18 -8 -37 -19 -40 -25 -4 -6
-22 -11 -39 -11 -18 0 -45 -9 -62 -20 -19 -13 -47 -20 -77 -20 -54 0 -63 -16
-18 -31 17 -6 30 -15 30 -20 0 -13 -30 -57 -62 -93 -16 -17 -28 -34 -28 -38 0
-5 -6 -8 -14 -8 -8 0 -22 -10 -30 -21 -27 -39 -147 -109 -210 -124 -79 -18
-201 -22 -219 -6 -8 6 -21 9 -28 6 -40 -15 -180 48 -240 108 -15 15 -30 27
-33 27 -7 0 -164 127 -211 170 -16 16 -55 51 -85 78 -30 28 -95 88 -143 134
-49 45 -100 90 -113 98 -14 8 -27 25 -31 38 -3 15 -15 25 -34 29 -16 3 -29 12
-29 19 0 14 -52 70 -120 130 -19 16 -42 38 -50 47 -8 9 -67 68 -130 130 -64
61 -147 145 -185 185 -39 41 -86 90 -105 110 -19 20 -101 104 -181 186 -80 83
-172 180 -203 216 -32 36 -77 85 -101 110 -83 86 -108 195 -64 283 27 53 58
87 79 87 9 0 21 5 27 11 18 18 116 39 153 32 37 -6 115 -62 190 -136 25 -25
61 -56 80 -70 20 -14 51 -46 70 -71 18 -26 39 -46 45 -46 6 0 76 -68 155 -151
80 -84 160 -166 178 -183 115 -106 492 -495 492 -506 0 -4 11 -11 24 -14 13
-3 41 -28 62 -56 21 -27 46 -53 56 -56 10 -3 18 -10 18 -16 0 -11 389 -398
400 -398 4 0 17 -9 30 -20 13 -11 32 -20 42 -20 11 0 28 -5 39 -11 23 -12 75
7 99 36 7 8 17 15 22 15 21 0 176 137 193 171 8 14 28 32 45 39 16 7 30 17 30
22 0 5 27 36 60 70 34 34 90 96 126 138 35 42 75 83 89 90 13 7 29 25 35 39 6
15 30 48 53 73 71 78 107 126 107 141 0 8 7 20 15 27 17 14 18 20 6 38 -11 18
-54 -20 -138 -121 -35 -43 -203 -217 -372 -388 l-307 -309 -57 0 c-31 0 -57 4
-57 9 0 19 -1571 1580 -1650 1640 -25 19 -58 46 -75 61 -51 45 -141 61 -210
38z"/>
<path d="M2880 720 c0 -5 14 -10 31 -10 17 0 28 4 24 10 -3 6 -17 10 -31 10
-13 0 -24 -4 -24 -10z"/>
</g>
</svg>
